<svg width="109" height="108" viewBox="0 0 109 108" fill="none" xmlns="http://www.w3.org/2000/svg">
<g filter="url(#filter0_d_1_969)">
<path d="M54.5303 70C67.7851 70 78.5303 59.2548 78.5303 46C78.5303 32.7452 67.7851 22 54.5303 22C41.2754 22 30.5303 32.7452 30.5303 46C30.5303 59.2548 41.2754 70 54.5303 70Z" fill="#FECD34"/>
<path d="M77.5303 46C77.5303 58.7025 67.2328 69 54.5303 69C41.8277 69 31.5303 58.7025 31.5303 46C31.5303 33.2975 41.8277 23 54.5303 23C67.2328 23 77.5303 33.2975 77.5303 46Z" stroke="white" stroke-width="2"/>
</g>
<path fill-rule="evenodd" clip-rule="evenodd" d="M67.7803 45.143V45.5327C67.7803 45.9712 67.7803 46.423 67.7676 46.8777C67.7676 46.9553 67.7607 47.0361 67.7542 47.1132L67.7542 47.1132L67.7542 47.1134L67.7541 47.1135C67.7513 47.1471 67.7485 47.1799 67.7464 47.2116C67.7323 47.3789 67.7118 47.5455 67.6906 47.7058L67.6835 47.7474C67.656 47.991 67.6144 48.248 67.5586 48.5473C67.4156 49.3042 67.206 50.0469 66.9324 50.767C65.7536 53.8873 63.4577 56.4585 60.4902 57.9815C60.2402 58.1065 59.9826 58.2322 59.6903 58.3571C59.5516 58.418 59.4031 58.4534 59.2519 58.4616H59.2173C58.9438 58.4639 58.6789 58.3662 58.4725 58.1867C58.2661 58.0072 58.1325 57.7585 58.0968 57.4873C58.0673 57.2586 58.1081 57.0262 58.2138 56.8212C58.3195 56.6161 58.485 56.4481 58.6885 56.3394C58.7379 56.3137 58.7818 56.2947 58.825 56.276L58.8417 56.2688C58.8485 56.2652 58.8537 56.2634 58.8591 56.2616C58.8642 56.2599 58.8694 56.2581 58.8763 56.2547C60.3824 55.5887 61.7232 54.5988 62.803 53.3555C63.8829 52.1121 64.6752 50.6459 65.1236 49.0613C65.2485 48.6132 65.3461 48.1579 65.4159 47.698C65.5198 47.0402 65.5616 46.3741 65.5409 45.7085C65.5335 45.3033 65.5009 44.8989 65.4434 44.4977C65.1861 42.5904 64.4405 40.7818 63.279 39.2472C62.1174 37.7127 60.5792 36.504 58.8134 35.7385C58.8102 35.7349 58.805 35.7331 58.7997 35.7313C58.7946 35.7296 58.7894 35.7278 58.7859 35.7243C58.776 35.7191 58.7649 35.714 58.753 35.7086C58.7327 35.6993 58.7103 35.689 58.6885 35.6756C58.5041 35.5847 58.3491 35.4438 58.2408 35.2691C58.1326 35.0944 58.0756 34.8928 58.0764 34.6872C58.0716 34.4425 58.1472 34.2029 58.2917 34.0052C58.4662 33.7687 58.7256 33.609 59.0153 33.5598C59.0184 33.5598 59.0234 33.5581 59.0284 33.5564L59.0284 33.5564C59.0338 33.5546 59.0392 33.5527 59.0429 33.5527C59.0464 33.5527 59.0499 33.5509 59.0535 33.5492C59.057 33.5474 59.0605 33.5456 59.064 33.5456L59.0852 33.5386H59.3147L59.3359 33.5456C59.3394 33.5456 59.3429 33.5474 59.3464 33.5492L59.3464 33.5492C59.35 33.5509 59.3535 33.5527 59.357 33.5527C59.4669 33.5733 59.5742 33.606 59.6769 33.6501C60.623 34.0593 61.5193 34.5752 62.3483 35.1878C63.1808 35.8003 63.939 36.5078 64.6075 37.2959C65.2764 38.0858 65.8529 38.9494 66.3259 39.8699C66.8581 40.9065 67.2533 42.008 67.5014 43.1465C67.5854 43.5233 67.6504 43.904 67.6963 44.2874C67.7142 44.4115 67.7262 44.5356 67.738 44.6579C67.7447 44.7276 67.7514 44.7967 67.7591 44.8649C67.7601 44.923 67.7648 44.981 67.7732 45.0385C67.7788 45.0731 67.7812 45.108 67.7803 45.143ZM62.0478 40.8895C63.0472 42.4036 63.5795 44.178 63.5787 45.9921C63.5779 47.8004 63.047 49.5688 62.0517 51.0786C61.0564 52.5884 59.6404 53.7732 57.9787 54.4866C57.8387 54.5501 57.6869 54.5833 57.5332 54.584C57.2747 54.5821 57.0246 54.4915 56.8248 54.3273C56.625 54.1632 56.4876 53.9355 56.4354 53.6823C56.3833 53.429 56.4196 53.1655 56.5383 52.9358C56.6571 52.7061 56.851 52.5241 57.0877 52.4202C58.3473 51.8784 59.4201 50.9788 60.1732 49.833C60.9262 48.6872 61.3264 47.3456 61.3242 45.9745C61.3219 44.6034 60.9173 43.2631 60.1605 42.1198C59.4036 40.9765 58.3279 40.0805 57.0666 39.5428C56.931 39.4859 56.8083 39.4024 56.7056 39.2973C56.6029 39.1922 56.5223 39.0675 56.4686 38.9307C56.414 38.7931 56.3871 38.646 56.3896 38.498C56.392 38.3499 56.4236 38.2038 56.4827 38.068C56.5671 37.8649 56.7101 37.6916 56.8935 37.5702C57.0768 37.4487 57.2921 37.3846 57.5121 37.386C57.6653 37.3843 57.8171 37.4151 57.9575 37.4764C59.626 38.1886 61.0484 39.3755 62.0478 40.8895ZM58.5831 48.5662C59.0529 47.7743 59.3027 46.8713 59.3067 45.9505C59.3067 45.8484 59.2932 45.6801 59.2801 45.5164L59.2801 45.5163L59.2792 45.505C59.2433 45.1478 59.1687 44.7956 59.0568 44.4545C58.8378 43.7909 58.4801 43.1815 58.0075 42.6669C57.5348 42.1522 56.958 41.7441 56.3154 41.4695C56.168 41.4067 56.0097 41.3736 55.8495 41.3721C55.7609 41.3744 55.6726 41.3836 55.5854 41.3997C55.348 41.4551 55.1354 41.5871 54.9804 41.7752C54.8223 41.9601 54.7314 42.193 54.7227 42.4361C54.7122 42.5993 54.7384 42.7629 54.7995 42.9146C54.8606 43.0664 54.955 43.2025 55.0757 43.3129C55.1837 43.4127 55.3085 43.4928 55.4442 43.5494C55.919 43.7599 56.3227 44.1034 56.6066 44.5384C56.8904 44.9734 57.0422 45.4813 57.0437 46.0006C57.0452 46.52 56.8963 47.0288 56.615 47.4654C56.3337 47.902 55.9319 48.2478 55.4584 48.461L55.4372 48.4681C55.4234 48.4751 55.4077 48.482 55.392 48.4889C55.3763 48.4958 55.3606 48.5027 55.3468 48.5097C55.177 48.5973 55.0328 48.7272 54.928 48.8869C54.8233 49.0466 54.7615 49.2306 54.7488 49.4212C54.735 49.6107 54.7693 49.8006 54.8484 49.9734C54.9275 50.1462 55.0489 50.2962 55.2014 50.4096C55.3899 50.5576 55.6225 50.6383 55.8622 50.639C56.0152 50.6386 56.1666 50.6079 56.3077 50.5487C56.4397 50.4929 56.5717 50.43 56.6903 50.3679C57.4711 49.9475 58.1247 49.3253 58.5831 48.5662ZM52.6069 43.4317V37.6016C52.6055 37.4047 52.5459 37.2126 52.4358 37.0493C52.3256 36.8861 52.1698 36.7589 51.9878 36.6838C51.8688 36.6339 51.7412 36.608 51.6122 36.6076C51.481 36.607 51.351 36.6325 51.2298 36.6827C51.1086 36.7329 50.9986 36.8067 50.9062 36.8998L45.8689 41.9647H42.4286V41.971H42.0187C41.7558 41.9723 41.5042 42.0777 41.319 42.2642C41.1337 42.4506 41.0299 42.7029 41.0303 42.9657V49.031C41.0303 49.2931 41.1344 49.5445 41.3198 49.7298C41.5051 49.9152 41.7565 50.0193 42.0187 50.0193H42.4286V50.0208H45.8513L50.909 55.0856C51.0014 55.1787 51.1114 55.2525 51.2326 55.3027C51.3539 55.3529 51.4838 55.3784 51.615 55.3779C51.7463 55.3774 51.8763 55.3515 51.9977 55.3016C52.1797 55.2273 52.3353 55.1001 52.4444 54.9365C52.5535 54.773 52.6111 54.5804 52.6098 54.3838V48.5523L52.6069 43.4317Z" fill="white"/>
<defs>
<filter id="filter0_d_1_969" x="0.530273" y="0" width="108" height="108" filterUnits="userSpaceOnUse" color-interpolation-filters="sRGB">
<feFlood flood-opacity="0" result="BackgroundImageFix"/>
<feColorMatrix in="SourceAlpha" type="matrix" values="0 0 0 0 0 0 0 0 0 0 0 0 0 0 0 0 0 0 127 0" result="hardAlpha"/>
<feOffset dy="8"/>
<feGaussianBlur stdDeviation="15"/>
<feColorMatrix type="matrix" values="0 0 0 0 0.0705882 0 0 0 0 0.0980392 0 0 0 0 0.356863 0 0 0 0.1 0"/>
<feBlend mode="normal" in2="BackgroundImageFix" result="effect1_dropShadow_1_969"/>
<feBlend mode="normal" in="SourceGraphic" in2="effect1_dropShadow_1_969" result="shape"/>
</filter>
</defs>
</svg>
